<svg width="31" height="32" viewBox="0 0 31 32" fill="none" xmlns="http://www.w3.org/2000/svg">
    <path fill-rule="evenodd" clip-rule="evenodd" d="M21.955 29.328a6.59 6.59 0 0 0 4.679-1.942 6.544 6.544 0 0 0 1.949-4.662V8.976c0-1.754-.692-3.41-1.95-4.662a6.59 6.59 0 0 0-4.678-1.942H9.008a6.59 6.59 0 0 0-4.679 1.942A6.544 6.544 0 0 0 2.38 8.976v13.748c0 1.754.692 3.41 1.95 4.662a6.59 6.59 0 0 0 4.678 1.942h12.947zm0 2.372H9.008C4.053 31.7 0 27.66 0 22.724V8.976C0 4.039 4.053 0 9.008 0h12.947c4.954 0 9.008 4.04 9.008 8.976v13.748c0 4.937-4.054 8.976-9.008 8.976z" fill="#6F7E0D"/>
    <path fill-rule="evenodd" clip-rule="evenodd" d="M15.482 10.195a5.58 5.58 0 1 0-.001 11.16 5.58 5.58 0 0 0 0-11.16zm8.564 5.573a8.522 8.522 0 0 1-8.523 8.522 8.522 8.522 0 1 1 0-17.044 8.523 8.523 0 0 1 8.523 8.522zM26.187 7.122a2.017 2.017 0 1 1-4.035 0 2.017 2.017 0 0 1 4.035 0z" fill="#6F7E0D"/>
</svg>
