<svg width="58" height="81" viewBox="0 0 58 81" fill="none" xmlns="http://www.w3.org/2000/svg">
    <path d="M55.022 32.456c2.885-.516 3.606 3.915.721 4.43L42.25 39.155c-.616.104-1.236-.104-1.752-.515L38.644 37.3c-.104 2.267-1.546 8.241-.926 11.638l10.094 11.226c.516.617.721 1.338.721 2.059l-.205 13.288c0 3.71-5.664 3.605-5.563-.104l.104-12.258-8.857-9.99-.411-.104 2.988 10.094c.31 1.031.105 2.163-.825 2.884L19.8 80.25c-2.78 2.473-6.49-1.752-3.71-4.222l14.626-12.979c-1.03-3.4-5.563-13.288-5.458-15.141.205-5.563-.516-14.215 2.267-19.158 2.059-3.5.927-4.222-.205-4.943-3.195-1.752-3.916-6.078-1.338-8.753a5.612 5.612 0 0 1 7.005-.617l.104-1.236-9.063-8.653-5.87 1.338a12.13 12.13 0 0 0-1.853 1.546c-2.574 2.473-3.5 5.047-7.311 5.87-3.4.825-7.726-.412-8.653-4.121-.826-3.71 2.574-6.695 5.87-7.52 3.914-.826 5.869 1.03 9.268 2.058.826.31 1.547.412 2.268.516l5.047-1.132C21.968.835 24.75-1.017 26.504.63l10.404 9.99c.927.721.721 1.237.825 2.163 1.031 6.385 0 12.052.105 18.541l4.636 3.194L55.04 32.46l-.019-.003zM14.955 7.22c.616-.617 1.337-1.338 2.058-1.958-.926-.104-1.853-.411-2.78-.72.516.824.722 1.751.722 2.678zM1.46 8.972c.72 3.09 4.531 3.915 7.21 3.295 2.678-.617 5.768-3.09 5.047-6.18-.72-3.09-4.532-3.914-7.21-3.295-2.78.617-5.768 3.09-5.047 6.18z" fill="#FEFEFE"/>
    <path fill-rule="evenodd" clip-rule="evenodd" d="M43.796 2.378c0 3.16-4.737 3.16-4.737 0 0-3.159 4.737-3.159 4.737 0z" fill="#FEFEFE"/>
</svg>
